# Tiled2Unity generated file. Do not modify by hand.
# Wavefront file for 'Level01_mesh_0001.obj'

# Vertices (Count = 660)
v -12 -1 0
v -13 -1 0
v -13 0 0
v -12 0 0
v -13 -1 0
v -14 -1 0
v -14 0 0
v -13 0 0
v -11 -2 0
v -12 -2 0
v -12 -1 0
v -11 -1 0
v -12 -2 0
v -13 -2 0
v -13 -1 0
v -12 -1 0
v -13 -2 0
v -14 -2 0
v -14 -1 0
v -13 -1 0
v -14 -2 0
v -15 -2 0
v -15 -1 0
v -14 -1 0
v -10 -3 0
v -11 -3 0
v -11 -2 0
v -10 -2 0
v -11 -3 0
v -12 -3 0
v -12 -2 0
v -11 -2 0
v -14 -3 0
v -15 -3 0
v -15 -2 0
v -14 -2 0
v -15 -3 0
v -16 -3 0
v -16 -2 0
v -15 -2 0
v -10 -4 0
v -11 -4 0
v -11 -3 0
v -10 -3 0
v -11 -4 0
v -12 -4 0
v -12 -3 0
v -11 -3 0
v -14 -4 0
v -15 -4 0
v -15 -3 0
v -14 -3 0
v -15 -4 0
v -16 -4 0
v -16 -3 0
v -15 -3 0
v -6 -5 0
v -7 -5 0
v -7 -4 0
v -6 -4 0
v -7 -5 0
v -8 -5 0
v -8 -4 0
v -7 -4 0
v -8 -5 0
v -9 -5 0
v -9 -4 0
v -8 -4 0
v -11 -5 0
v -12 -5 0
v -12 -4 0
v -11 -4 0
v -14 -5 0
v -15 -5 0
v -15 -4 0
v -14 -4 0
v -5 -6 0
v -6 -6 0
v -6 -5 0
v -5 -5 0
v -6 -6 0
v -7 -6 0
v -7 -5 0
v -6 -5 0
v -4 -7 0
v -5 -7 0
v -5 -6 0
v -4 -6 0
v -5 -7 0
v -6 -7 0
v -6 -6 0
v -5 -6 0
v -9 -7 0
v -10 -7 0
v -10 -6 0
v -9 -6 0
v -2 -8 0
v -3 -8 0
v -3 -7 0
v -2 -7 0
v -3 -8 0
v -4 -8 0
v -4 -7 0
v -3 -7 0
v -4 -8 0
v -5 -8 0
v -5 -7 0
v -4 -7 0
v -11 -8 0
v -12 -8 0
v -12 -7 0
v -11 -7 0
v -12 -8 0
v -13 -8 0
v -13 -7 0
v -12 -7 0
v -13 -8 0
v -14 -8 0
v -14 -7 0
v -13 -7 0
v -14 -8 0
v -15 -8 0
v -15 -7 0
v -14 -7 0
v -2 -9 0
v -3 -9 0
v -3 -8 0
v -2 -8 0
v -3 -9 0
v -4 -9 0
v -4 -8 0
v -3 -8 0
v -1 -10 0
v -2 -10 0
v -2 -9 0
v -1 -9 0
v -2 -10 0
v -3 -10 0
v -3 -9 0
v -2 -9 0
v -3 -10 0
v -4 -10 0
v -4 -9 0
v -3 -9 0
v -4 -10 0
v -5 -10 0
v -5 -9 0
v -4 -9 0
v -5 -10 0
v -6 -10 0
v -6 -9 0
v -5 -9 0
v -6 -10 0
v -7 -10 0
v -7 -9 0
v -6 -9 0
v -7 -10 0
v -8 -10 0
v -8 -9 0
v -7 -9 0
v -8 -10 0
v -9 -10 0
v -9 -9 0
v -8 -9 0
v -9 -10 0
v -10 -10 0
v -10 -9 0
v -9 -9 0
v -1 -11 0
v -2 -11 0
v -2 -10 0
v -1 -10 0
v -2 -11 0
v -3 -11 0
v -3 -10 0
v -2 -10 0
v -3 -11 0
v -4 -11 0
v -4 -10 0
v -3 -10 0
v -4 -11 0
v -5 -11 0
v -5 -10 0
v -4 -10 0
v -5 -11 0
v -6 -11 0
v -6 -10 0
v -5 -10 0
v -6 -11 0
v -7 -11 0
v -7 -10 0
v -6 -10 0
v -7 -11 0
v -8 -11 0
v -8 -10 0
v -7 -10 0
v -8 -11 0
v -9 -11 0
v -9 -10 0
v -8 -10 0
v -21 -11 0
v -22 -11 0
v -22 -10 0
v -21 -10 0
v -22 -11 0
v -23 -11 0
v -23 -10 0
v -22 -10 0
v -1 -12 0
v -2 -12 0
v -2 -11 0
v -1 -11 0
v -2 -12 0
v -3 -12 0
v -3 -11 0
v -2 -11 0
v -3 -12 0
v -4 -12 0
v -4 -11 0
v -3 -11 0
v -4 -12 0
v -5 -12 0
v -5 -11 0
v -4 -11 0
v -5 -12 0
v -6 -12 0
v -6 -11 0
v -5 -11 0
v -6 -12 0
v -7 -12 0
v -7 -11 0
v -6 -11 0
v -7 -12 0
v -8 -12 0
v -8 -11 0
v -7 -11 0
v -18 -12 0
v -19 -12 0
v -19 -11 0
v -18 -11 0
v -19 -12 0
v -20 -12 0
v -20 -11 0
v -19 -11 0
v -20 -12 0
v -21 -12 0
v -21 -11 0
v -20 -11 0
v -21 -12 0
v -22 -12 0
v -22 -11 0
v -21 -11 0
v -22 -12 0
v -23 -12 0
v -23 -11 0
v -22 -11 0
v -1 -13 0
v -2 -13 0
v -2 -12 0
v -1 -12 0
v -6 -13 0
v -7 -13 0
v -7 -12 0
v -6 -12 0
v -7 -13 0
v -8 -13 0
v -8 -12 0
v -7 -12 0
v -14 -13 0
v -15 -13 0
v -15 -12 0
v -14 -12 0
v -15 -13 0
v -16 -13 0
v -16 -12 0
v -15 -12 0
v -16 -13 0
v -17 -13 0
v -17 -12 0
v -16 -12 0
v -17 -13 0
v -18 -13 0
v -18 -12 0
v -17 -12 0
v -18 -13 0
v -19 -13 0
v -19 -12 0
v -18 -12 0
v -19 -13 0
v -20 -13 0
v -20 -12 0
v -19 -12 0
v -23 -13 0
v -24 -13 0
v -24 -12 0
v -23 -12 0
v -24 -13 0
v -25 -13 0
v -25 -12 0
v -24 -12 0
v -25 -13 0
v -26 -13 0
v -26 -12 0
v -25 -12 0
v -26 -13 0
v -27 -13 0
v -27 -12 0
v -26 -12 0
v -36 -13 0
v -37 -13 0
v -37 -12 0
v -36 -12 0
v -37 -13 0
v -38 -13 0
v -38 -12 0
v -37 -12 0
v -1 -14 0
v -2 -14 0
v -2 -13 0
v -1 -13 0
v -6 -14 0
v -7 -14 0
v -7 -13 0
v -6 -13 0
v -7 -14 0
v -8 -14 0
v -8 -13 0
v -7 -13 0
v -11 -14 0
v -12 -14 0
v -12 -13 0
v -11 -13 0
v -12 -14 0
v -13 -14 0
v -13 -13 0
v -12 -13 0
v -13 -14 0
v -14 -14 0
v -14 -13 0
v -13 -13 0
v -14 -14 0
v -15 -14 0
v -15 -13 0
v -14 -13 0
v -15 -14 0
v -16 -14 0
v -16 -13 0
v -15 -13 0
v -23 -14 0
v -24 -14 0
v -24 -13 0
v -23 -13 0
v -24 -14 0
v -25 -14 0
v -25 -13 0
v -24 -13 0
v -25 -14 0
v -26 -14 0
v -26 -13 0
v -25 -13 0
v -26 -14 0
v -27 -14 0
v -27 -13 0
v -26 -13 0
v -36 -14 0
v -37 -14 0
v -37 -13 0
v -36 -13 0
v -37 -14 0
v -38 -14 0
v -38 -13 0
v -37 -13 0
v -1 -15 0
v -2 -15 0
v -2 -14 0
v -1 -14 0
v -4 -15 0
v -5 -15 0
v -5 -14 0
v -4 -14 0
v -5 -15 0
v -6 -15 0
v -6 -14 0
v -5 -14 0
v -6 -15 0
v -7 -15 0
v -7 -14 0
v -6 -14 0
v -7 -15 0
v -8 -15 0
v -8 -14 0
v -7 -14 0
v -10 -15 0
v -11 -15 0
v -11 -14 0
v -10 -14 0
v -11 -15 0
v -12 -15 0
v -12 -14 0
v -11 -14 0
v -13 -15 0
v -14 -15 0
v -14 -14 0
v -13 -14 0
v -14 -15 0
v -15 -15 0
v -15 -14 0
v -14 -14 0
v -15 -15 0
v -16 -15 0
v -16 -14 0
v -15 -14 0
v -18 -15 0
v -19 -15 0
v -19 -14 0
v -18 -14 0
v -19 -15 0
v -20 -15 0
v -20 -14 0
v -19 -14 0
v -20 -15 0
v -21 -15 0
v -21 -14 0
v -20 -14 0
v -21 -15 0
v -22 -15 0
v -22 -14 0
v -21 -14 0
v -22 -15 0
v -23 -15 0
v -23 -14 0
v -22 -14 0
v -23 -15 0
v -24 -15 0
v -24 -14 0
v -23 -14 0
v -25 -15 0
v -26 -15 0
v -26 -14 0
v -25 -14 0
v -26 -15 0
v -27 -15 0
v -27 -14 0
v -26 -14 0
v -29 -15 0
v -30 -15 0
v -30 -14 0
v -29 -14 0
v -30 -15 0
v -31 -15 0
v -31 -14 0
v -30 -14 0
v -36 -15 0
v -37 -15 0
v -37 -14 0
v -36 -14 0
v -37 -15 0
v -38 -15 0
v -38 -14 0
v -37 -14 0
v -1 -16 0
v -2 -16 0
v -2 -15 0
v -1 -15 0
v -21 -16 0
v -22 -16 0
v -22 -15 0
v -21 -15 0
v -22 -16 0
v -23 -16 0
v -23 -15 0
v -22 -15 0
v -23 -16 0
v -24 -16 0
v -24 -15 0
v -23 -15 0
v -25 -16 0
v -26 -16 0
v -26 -15 0
v -25 -15 0
v -26 -16 0
v -27 -16 0
v -27 -15 0
v -26 -15 0
v -29 -16 0
v -30 -16 0
v -30 -15 0
v -29 -15 0
v -30 -16 0
v -31 -16 0
v -31 -15 0
v -30 -15 0
v -36 -16 0
v -37 -16 0
v -37 -15 0
v -36 -15 0
v -37 -16 0
v -38 -16 0
v -38 -15 0
v -37 -15 0
v -1 -17 0
v -2 -17 0
v -2 -16 0
v -1 -16 0
v -19 -17 0
v -20 -17 0
v -20 -16 0
v -19 -16 0
v -20 -17 0
v -21 -17 0
v -21 -16 0
v -20 -16 0
v -21 -17 0
v -22 -17 0
v -22 -16 0
v -21 -16 0
v -22 -17 0
v -23 -17 0
v -23 -16 0
v -22 -16 0
v -25 -17 0
v -26 -17 0
v -26 -16 0
v -25 -16 0
v -26 -17 0
v -27 -17 0
v -27 -16 0
v -26 -16 0
v -29 -17 0
v -30 -17 0
v -30 -16 0
v -29 -16 0
v -30 -17 0
v -31 -17 0
v -31 -16 0
v -30 -16 0
v -33 -17 0
v -34 -17 0
v -34 -16 0
v -33 -16 0
v -34 -17 0
v -35 -17 0
v -35 -16 0
v -34 -16 0
v -36 -17 0
v -37 -17 0
v -37 -16 0
v -36 -16 0
v -37 -17 0
v -38 -17 0
v -38 -16 0
v -37 -16 0
v -1 -18 0
v -2 -18 0
v -2 -17 0
v -1 -17 0
v -2 -18 0
v -3 -18 0
v -3 -17 0
v -2 -17 0
v -3 -18 0
v -4 -18 0
v -4 -17 0
v -3 -17 0
v -4 -18 0
v -5 -18 0
v -5 -17 0
v -4 -17 0
v -5 -18 0
v -6 -18 0
v -6 -17 0
v -5 -17 0
v -6 -18 0
v -7 -18 0
v -7 -17 0
v -6 -17 0
v -7 -18 0
v -8 -18 0
v -8 -17 0
v -7 -17 0
v -8 -18 0
v -9 -18 0
v -9 -17 0
v -8 -17 0
v -9 -18 0
v -10 -18 0
v -10 -17 0
v -9 -17 0
v -10 -18 0
v -11 -18 0
v -11 -17 0
v -10 -17 0
v -11 -18 0
v -12 -18 0
v -12 -17 0
v -11 -17 0
v -12 -18 0
v -13 -18 0
v -13 -17 0
v -12 -17 0
v -13 -18 0
v -14 -18 0
v -14 -17 0
v -13 -17 0
v -14 -18 0
v -15 -18 0
v -15 -17 0
v -14 -17 0
v -15 -18 0
v -16 -18 0
v -16 -17 0
v -15 -17 0
v -19 -18 0
v -20 -18 0
v -20 -17 0
v -19 -17 0
v -20 -18 0
v -21 -18 0
v -21 -17 0
v -20 -17 0
v -21 -18 0
v -22 -18 0
v -22 -17 0
v -21 -17 0
v -22 -18 0
v -23 -18 0
v -23 -17 0
v -22 -17 0
v -25 -18 0
v -26 -18 0
v -26 -17 0
v -25 -17 0
v -26 -18 0
v -27 -18 0
v -27 -17 0
v -26 -17 0
v -29 -18 0
v -30 -18 0
v -30 -17 0
v -29 -17 0
v -30 -18 0
v -31 -18 0
v -31 -17 0
v -30 -17 0
v -33 -18 0
v -34 -18 0
v -34 -17 0
v -33 -17 0
v -34 -18 0
v -35 -18 0
v -35 -17 0
v -34 -17 0
v -36 -18 0
v -37 -18 0
v -37 -17 0
v -36 -17 0
v -37 -18 0
v -38 -18 0
v -38 -17 0
v -37 -17 0

# Texture cooridinates (Count = 68)
vt 0.24 0.76
vt 0.288 0.76
vt 0.288 0.808
vt 0.24 0.808
vt 0.192 0.76
vt 0.192 0.808
vt 0.144 0.76
vt 0.144 0.808
vt 0.336 0.76
vt 0.336 0.808
vt 0.096 0.856
vt 0.144 0.856
vt 0.144 0.904
vt 0.096 0.904
vt 0.384 0.76
vt 0.384 0.808
vt 0.336 0.712
vt 0.384 0.712
vt 0.096 0.712
vt 0.144 0.712
vt 0.096 0.76
vt 0.048 0.712
vt 0.048 0.76
vt 0.096 0.808
vt 0.048 0.808
vt 0.288 0.904
vt 0.336 0.904
vt 0.336 0.952
vt 0.288 0.952
vt 0.048 0.904
vt 0.096 0.952
vt 0.048 0.952
vt 0.144 0.952
vt 0.384 0.904
vt 0.384 0.952
vt 0.288 0.856
vt 0.336 0.856
vt 0.048 0.856
vt 0.192 0.904
vt 0.24 0.904
vt 0.24 0.952
vt 0.192 0.952
vt 0.24 0.856
vt 0.432 0.904
vt 0.432 0.952
vt 0.384 0.856
vt 0.432 0.712
vt 0.432 0.76
vt 0.48 0.904
vt 0.48 0.952
vt 0.528 0.904
vt 0.528 0.952
vt 0.432 0.856
vt 0.528 0.76
vt 0.576 0.76
vt 0.576 0.808
vt 0.528 0.808
vt 0.624 0.76
vt 0.624 0.808
vt 0.624 0.856
vt 0.672 0.856
vt 0.672 0.904
vt 0.624 0.904
vt 0.576 0.856
vt 0.576 0.904
vt 0.672 0.952
vt 0.624 0.952
vt 0.576 0.952

# Normal
vn 0 0 -1

# Mesh description
g Level01_mesh_0001

# Faces
f 1/1/1 2/2/1 3/3/1 4/4/1
f 5/5/1 6/1/1 7/4/1 8/6/1
f 9/1/1 10/2/1 11/3/1 12/4/1
f 13/7/1 14/5/1 15/6/1 16/8/1
f 17/2/1 18/9/1 19/10/1 20/3/1
f 21/5/1 22/1/1 23/4/1 24/6/1
f 25/1/1 26/2/1 27/3/1 28/4/1
f 29/7/1 30/5/1 31/6/1 32/8/1
f 33/2/1 34/9/1 35/10/1 36/3/1
f 37/5/1 38/1/1 39/4/1 40/6/1
f 41/2/1 42/9/1 43/10/1 44/3/1
f 45/5/1 46/1/1 47/4/1 48/6/1
f 49/1/1 50/2/1 51/3/1 52/4/1
f 53/7/1 54/5/1 55/6/1 56/8/1
f 57/1/1 58/2/1 59/3/1 60/4/1
f 61/11/1 62/12/1 63/13/1 64/14/1
f 65/9/1 66/15/1 67/16/1 68/10/1
f 69/2/1 70/9/1 71/10/1 72/3/1
f 73/7/1 74/5/1 75/6/1 76/8/1
f 77/1/1 78/2/1 79/3/1 80/4/1
f 81/7/1 82/5/1 83/6/1 84/8/1
f 85/1/1 86/2/1 87/3/1 88/4/1
f 89/7/1 90/5/1 91/6/1 92/8/1
f 93/17/1 94/18/1 95/15/1 96/9/1
f 97/19/1 98/20/1 99/7/1 100/21/1
f 101/22/1 102/19/1 103/21/1 104/23/1
f 105/7/1 106/5/1 107/6/1 108/8/1
f 109/2/1 110/9/1 111/10/1 112/3/1
f 113/17/1 114/18/1 115/15/1 116/9/1
f 117/17/1 118/18/1 119/15/1 120/9/1
f 121/7/1 122/5/1 123/6/1 124/8/1
f 125/21/1 126/7/1 127/8/1 128/24/1
f 129/23/1 130/21/1 131/24/1 132/25/1
f 133/26/1 134/27/1 135/28/1 136/29/1
f 137/30/1 138/14/1 139/31/1 140/32/1
f 141/14/1 142/13/1 143/33/1 144/31/1
f 145/14/1 146/13/1 147/33/1 148/31/1
f 149/14/1 150/13/1 151/33/1 152/31/1
f 153/14/1 154/13/1 155/33/1 156/31/1
f 157/14/1 158/13/1 159/33/1 160/31/1
f 161/14/1 162/13/1 163/33/1 164/31/1
f 165/27/1 166/34/1 167/35/1 168/28/1
f 169/36/1 170/37/1 171/27/1 172/26/1
f 173/38/1 174/11/1 175/14/1 176/30/1
f 177/11/1 178/12/1 179/13/1 180/14/1
f 181/11/1 182/12/1 183/13/1 184/14/1
f 185/39/1 186/40/1 187/41/1 188/42/1
f 189/11/1 190/12/1 191/13/1 192/14/1
f 193/27/1 194/34/1 195/35/1 196/28/1
f 197/17/1 198/18/1 199/15/1 200/9/1
f 201/4/1 202/3/1 203/36/1 204/43/1
f 205/5/1 206/1/1 207/4/1 208/6/1
f 209/11/1 210/12/1 211/13/1 212/14/1
f 213/17/1 214/18/1 215/15/1 216/9/1
f 217/17/1 218/18/1 219/15/1 220/9/1
f 221/34/1 222/44/1 223/45/1 224/35/1
f 225/27/1 226/34/1 227/35/1 228/28/1
f 229/34/1 230/44/1 231/45/1 232/35/1
f 233/9/1 234/15/1 235/16/1 236/10/1
f 237/3/1 238/10/1 239/37/1 240/36/1
f 241/10/1 242/16/1 243/46/1 244/37/1
f 245/17/1 246/18/1 247/15/1 248/9/1
f 249/17/1 250/18/1 251/15/1 252/9/1
f 253/7/1 254/5/1 255/6/1 256/8/1
f 257/9/1 258/15/1 259/16/1 260/10/1
f 261/18/1 262/47/1 263/48/1 264/15/1
f 265/9/1 266/15/1 267/16/1 268/10/1
f 269/3/1 270/10/1 271/37/1 272/36/1
f 273/10/1 274/16/1 275/46/1 276/37/1
f 277/17/1 278/18/1 279/15/1 280/9/1
f 281/17/1 282/18/1 283/15/1 284/9/1
f 285/17/1 286/18/1 287/15/1 288/9/1
f 289/17/1 290/18/1 291/15/1 292/9/1
f 293/1/1 294/2/1 295/3/1 296/4/1
f 297/5/1 298/1/1 299/4/1 300/6/1
f 301/34/1 302/44/1 303/45/1 304/35/1
f 305/27/1 306/34/1 307/35/1 308/28/1
f 309/34/1 310/44/1 311/45/1 312/35/1
f 313/27/1 314/34/1 315/35/1 316/28/1
f 317/9/1 318/15/1 319/16/1 320/10/1
f 321/11/1 322/12/1 323/13/1 324/14/1
f 325/9/1 326/15/1 327/16/1 328/10/1
f 329/44/1 330/49/1 331/50/1 332/45/1
f 333/49/1 334/51/1 335/52/1 336/50/1
f 337/49/1 338/51/1 339/52/1 340/50/1
f 341/49/1 342/51/1 343/52/1 344/50/1
f 345/49/1 346/51/1 347/52/1 348/50/1
f 349/2/1 350/9/1 351/10/1 352/3/1
f 353/7/1 354/5/1 355/6/1 356/8/1
f 357/46/1 358/53/1 359/44/1 360/34/1
f 361/37/1 362/46/1 363/34/1 364/27/1
f 365/46/1 366/53/1 367/44/1 368/34/1
f 369/37/1 370/46/1 371/34/1 372/27/1
f 373/27/1 374/34/1 375/35/1 376/28/1
f 377/17/1 378/18/1 379/15/1 380/9/1
f 381/17/1 382/18/1 383/15/1 384/9/1
f 385/17/1 386/18/1 387/15/1 388/9/1
f 389/9/1 390/15/1 391/16/1 392/10/1
f 393/44/1 394/49/1 395/50/1 396/45/1
f 397/54/1 398/55/1 399/56/1 400/57/1
f 401/55/1 402/58/1 403/59/1 404/56/1
f 405/17/1 406/18/1 407/15/1 408/9/1
f 409/54/1 410/55/1 411/56/1 412/57/1
f 413/34/1 414/44/1 415/45/1 416/35/1
f 417/17/1 418/18/1 419/15/1 420/9/1
f 421/17/1 422/18/1 423/15/1 424/9/1
f 425/7/1 426/5/1 427/6/1 428/8/1
f 429/2/1 430/9/1 431/10/1 432/3/1
f 433/9/1 434/15/1 435/16/1 436/10/1
f 437/34/1 438/44/1 439/45/1 440/35/1
f 441/27/1 442/34/1 443/35/1 444/28/1
f 445/34/1 446/44/1 447/45/1 448/35/1
f 449/27/1 450/34/1 451/35/1 452/28/1
f 453/34/1 454/44/1 455/45/1 456/35/1
f 457/27/1 458/34/1 459/35/1 460/28/1
f 461/9/1 462/15/1 463/16/1 464/10/1
f 465/5/1 466/1/1 467/4/1 468/6/1
f 469/1/1 470/2/1 471/3/1 472/4/1
f 473/9/1 474/15/1 475/16/1 476/10/1
f 477/46/1 478/53/1 479/44/1 480/34/1
f 481/37/1 482/46/1 483/34/1 484/27/1
f 485/46/1 486/53/1 487/44/1 488/34/1
f 489/37/1 490/46/1 491/34/1 492/27/1
f 493/46/1 494/53/1 495/44/1 496/34/1
f 497/37/1 498/46/1 499/34/1 500/27/1
f 501/27/1 502/34/1 503/35/1 504/28/1
f 505/1/1 506/2/1 507/3/1 508/4/1
f 509/5/1 510/1/1 511/4/1 512/6/1
f 513/60/1 514/61/1 515/62/1 516/63/1
f 517/64/1 518/60/1 519/63/1 520/65/1
f 521/34/1 522/44/1 523/45/1 524/35/1
f 525/27/1 526/34/1 527/35/1 528/28/1
f 529/34/1 530/44/1 531/45/1 532/35/1
f 533/27/1 534/34/1 535/35/1 536/28/1
f 537/34/1 538/44/1 539/45/1 540/35/1
f 541/27/1 542/34/1 543/35/1 544/28/1
f 545/34/1 546/44/1 547/45/1 548/35/1
f 549/27/1 550/34/1 551/35/1 552/28/1
f 553/11/1 554/12/1 555/13/1 556/14/1
f 557/17/1 558/18/1 559/15/1 560/9/1
f 561/17/1 562/18/1 563/15/1 564/9/1
f 565/17/1 566/18/1 567/15/1 568/9/1
f 569/17/1 570/18/1 571/15/1 572/9/1
f 573/17/1 574/18/1 575/15/1 576/9/1
f 577/17/1 578/18/1 579/15/1 580/9/1
f 581/17/1 582/18/1 583/15/1 584/9/1
f 585/55/1 586/58/1 587/59/1 588/56/1
f 589/49/1 590/51/1 591/52/1 592/50/1
f 593/49/1 594/51/1 595/52/1 596/50/1
f 597/49/1 598/51/1 599/52/1 600/50/1
f 601/49/1 602/51/1 603/52/1 604/50/1
f 605/49/1 606/51/1 607/52/1 608/50/1
f 609/54/1 610/55/1 611/56/1 612/57/1
f 613/2/1 614/9/1 615/10/1 616/3/1
f 617/1/1 618/2/1 619/3/1 620/4/1
f 621/63/1 622/62/1 623/66/1 624/67/1
f 625/65/1 626/63/1 627/67/1 628/68/1
f 629/34/1 630/44/1 631/45/1 632/35/1
f 633/27/1 634/34/1 635/35/1 636/28/1
f 637/46/1 638/53/1 639/44/1 640/34/1
f 641/37/1 642/46/1 643/34/1 644/27/1
f 645/46/1 646/53/1 647/44/1 648/34/1
f 649/37/1 650/46/1 651/34/1 652/27/1
f 653/34/1 654/44/1 655/45/1 656/35/1
f 657/27/1 658/34/1 659/35/1 660/28/1

